<svg width="51" height="51" viewBox="0 0 51 51" fill="none" xmlns="http://www.w3.org/2000/svg">
<rect x="0.790039" y="0.399902" width="50" height="50" rx="25" fill="#BD8E2A"/>
<path d="M26.4676 20.6277C28.904 20.6277 30.9149 22.6387 30.9149 25.075C30.9149 27.55 28.904 29.5223 26.4676 29.5223C23.9926 29.5223 22.0204 27.55 22.0204 25.075C22.0204 22.6387 23.9926 20.6277 26.4676 20.6277ZM26.4676 27.9754C28.0532 27.9754 29.3293 26.6992 29.3293 25.075C29.3293 23.4895 28.0532 22.2133 26.4676 22.2133C24.8434 22.2133 23.5672 23.4895 23.5672 25.075C23.5672 26.6992 24.8821 27.9754 26.4676 27.9754ZM32.1137 20.473C32.1137 21.0531 31.6497 21.5172 31.0696 21.5172C30.4895 21.5172 30.0254 21.0531 30.0254 20.473C30.0254 19.893 30.4895 19.4289 31.0696 19.4289C31.6497 19.4289 32.1137 19.893 32.1137 20.473ZM35.0528 21.5172C35.1301 22.948 35.1301 27.2406 35.0528 28.6715C34.9754 30.0637 34.6661 31.2625 33.6606 32.3066C32.6551 33.3121 31.4176 33.6215 30.0254 33.6988C28.5946 33.7762 24.302 33.7762 22.8711 33.6988C21.479 33.6215 20.2801 33.3121 19.236 32.3066C18.2305 31.2625 17.9211 30.0637 17.8438 28.6715C17.7665 27.2406 17.7665 22.948 17.8438 21.5172C17.9211 20.125 18.2305 18.8875 19.236 17.882C20.2801 16.8766 21.479 16.5672 22.8711 16.4898C24.302 16.4125 28.5946 16.4125 30.0254 16.4898C31.4176 16.5672 32.6551 16.8766 33.6606 17.882C34.6661 18.8875 34.9754 20.125 35.0528 21.5172ZM33.1965 30.1797C33.6606 29.0582 33.5446 26.3512 33.5446 25.075C33.5446 23.8375 33.6606 21.1305 33.1965 19.9703C32.8872 19.2355 32.3071 18.6168 31.5723 18.3461C30.4122 17.882 27.7051 17.998 26.4676 17.998C25.1915 17.998 22.4844 17.882 21.3629 18.3461C20.5895 18.6555 20.0094 19.2355 19.7 19.9703C19.236 21.1305 19.352 23.8375 19.352 25.075C19.352 26.3512 19.236 29.0582 19.7 30.1797C20.0094 30.9531 20.5895 31.5332 21.3629 31.8426C22.4844 32.3066 25.1915 32.1906 26.4676 32.1906C27.7051 32.1906 30.4122 32.3066 31.5723 31.8426C32.3071 31.5332 32.9258 30.9531 33.1965 30.1797Z" fill="white"/>
</svg>
